<?xml version="1.0" standalone="no"?><svg xmlns:xlink="http://www.w3.org/1999/xlink" xmlns="http://www.w3.org/2000/svg" viewBox="0 0 1500 1090.9090909090908" preserveAspectRatio="xMaxYMax slice"><g transform="scale(2.4849865396562434)"><rect x="0" y="0" width="603.625" height="439" fill="#000000"/><g transform="translate(0,0) scale(2.744) rotate(0)"><rect width="20" height="2" fill="#161616"/><rect y="4" width="20" height="2" fill="#161616"/><rect y="8" width="20" height="2" fill="#161616"/><rect y="12" width="20" height="2" fill="#161616"/><rect y="16" width="20" height="2" fill="#161616"/></g><g transform="translate(439,0) scale(2.744) rotate(0)"><rect width="2" height="20" fill="#141414"/><rect x="4" width="2" height="20" fill="#141414"/><rect x="8" width="2" height="20" fill="#141414"/><rect x="12" width="2" height="20" fill="#141414"/><rect x="16" width="2" height="20" fill="#141414"/></g><g transform="translate(0,54.88) scale(2.744) rotate(0)"><rect width="20" height="2" fill="#00132b"/><rect y="4" width="20" height="2" fill="#00132b"/><rect y="8" width="20" height="2" fill="#00132b"/><rect y="12" width="20" height="2" fill="#00132b"/><rect y="16" width="20" height="2" fill="#00132b"/></g><g transform="translate(109.75,54.88) scale(2.744) rotate(0)"><rect width="2" height="20" fill="#00234f"/><rect x="4" width="2" height="20" fill="#00234f"/><rect x="8" width="2" height="20" fill="#00234f"/><rect x="12" width="2" height="20" fill="#00234f"/><rect x="16" width="2" height="20" fill="#00234f"/></g><g transform="translate(329.25,54.88) scale(2.744) rotate(0)"><rect width="2" height="20" fill="#00295c"/><rect x="4" width="2" height="20" fill="#00295c"/><rect x="8" width="2" height="20" fill="#00295c"/><rect x="12" width="2" height="20" fill="#00295c"/><rect x="16" width="2" height="20" fill="#00295c"/></g><g transform="translate(384.13,54.88) scale(2.744) rotate(0)"><rect width="20" height="2" fill="#00306a"/><rect y="4" width="20" height="2" fill="#00306a"/><rect y="8" width="20" height="2" fill="#00306a"/><rect y="12" width="20" height="2" fill="#00306a"/><rect y="16" width="20" height="2" fill="#00306a"/></g><g transform="translate(439,54.88) scale(2.744) rotate(0)"><rect width="20" height="2" fill="#00316e"/><rect y="4" width="20" height="2" fill="#00316e"/><rect y="8" width="20" height="2" fill="#00316e"/><rect y="12" width="20" height="2" fill="#00316e"/><rect y="16" width="20" height="2" fill="#00316e"/></g><g transform="translate(493.88,54.88) scale(2.744) rotate(0)"><rect width="2" height="20" fill="#0f0f0f"/><rect x="4" width="2" height="20" fill="#0f0f0f"/><rect x="8" width="2" height="20" fill="#0f0f0f"/><rect x="12" width="2" height="20" fill="#0f0f0f"/><rect x="16" width="2" height="20" fill="#0f0f0f"/></g><g transform="translate(548.75,54.88) scale(2.744) rotate(0)"><rect width="2" height="20" fill="#2c2c2c"/><rect x="4" width="2" height="20" fill="#2c2c2c"/><rect x="8" width="2" height="20" fill="#2c2c2c"/><rect x="12" width="2" height="20" fill="#2c2c2c"/><rect x="16" width="2" height="20" fill="#2c2c2c"/></g><g transform="translate(0,109.75) scale(2.744) rotate(0)"><rect width="2" height="20" fill="#252525"/><rect x="4" width="2" height="20" fill="#252525"/><rect x="8" width="2" height="20" fill="#252525"/><rect x="12" width="2" height="20" fill="#252525"/><rect x="16" width="2" height="20" fill="#252525"/></g><g transform="translate(54.88,109.75) scale(2.744) rotate(0)"><rect width="2" height="20" fill="#242424"/><rect x="4" width="2" height="20" fill="#242424"/><rect x="8" width="2" height="20" fill="#242424"/><rect x="12" width="2" height="20" fill="#242424"/><rect x="16" width="2" height="20" fill="#242424"/></g><g transform="translate(329.25,109.75) scale(2.744) rotate(0)"><rect width="20" height="2" fill="#00060e"/><rect y="4" width="20" height="2" fill="#00060e"/><rect y="8" width="20" height="2" fill="#00060e"/><rect y="12" width="20" height="2" fill="#00060e"/><rect y="16" width="20" height="2" fill="#00060e"/></g><g transform="translate(439,109.75) scale(2.744) rotate(0)"><rect width="2" height="20" fill="#070707"/><rect x="4" width="2" height="20" fill="#070707"/><rect x="8" width="2" height="20" fill="#070707"/><rect x="12" width="2" height="20" fill="#070707"/><rect x="16" width="2" height="20" fill="#070707"/></g><g transform="translate(493.88,109.75) scale(2.744) rotate(0)"><rect width="2" height="20" fill="#000b18"/><rect x="4" width="2" height="20" fill="#000b18"/><rect x="8" width="2" height="20" fill="#000b18"/><rect x="12" width="2" height="20" fill="#000b18"/><rect x="16" width="2" height="20" fill="#000b18"/></g><g transform="translate(54.88,164.63) scale(2.744) rotate(0)"><rect width="2" height="20" fill="#001e43"/><rect x="4" width="2" height="20" fill="#001e43"/><rect x="8" width="2" height="20" fill="#001e43"/><rect x="12" width="2" height="20" fill="#001e43"/><rect x="16" width="2" height="20" fill="#001e43"/></g><g transform="translate(329.25,164.63) scale(2.744) rotate(0)"><rect width="2" height="20" fill="#00060f"/><rect x="4" width="2" height="20" fill="#00060f"/><rect x="8" width="2" height="20" fill="#00060f"/><rect x="12" width="2" height="20" fill="#00060f"/><rect x="16" width="2" height="20" fill="#00060f"/></g><g transform="translate(439,164.63) scale(2.744) rotate(0)"><rect width="2" height="20" fill="#000b19"/><rect x="4" width="2" height="20" fill="#000b19"/><rect x="8" width="2" height="20" fill="#000b19"/><rect x="12" width="2" height="20" fill="#000b19"/><rect x="16" width="2" height="20" fill="#000b19"/></g><g transform="translate(548.75,164.63) scale(2.744) rotate(0)"><rect width="2" height="20" fill="#001024"/><rect x="4" width="2" height="20" fill="#001024"/><rect x="8" width="2" height="20" fill="#001024"/><rect x="12" width="2" height="20" fill="#001024"/><rect x="16" width="2" height="20" fill="#001024"/></g><g transform="translate(109.75,219.5) scale(2.744) rotate(0)"><rect width="2" height="20" fill="#050505"/><rect x="4" width="2" height="20" fill="#050505"/><rect x="8" width="2" height="20" fill="#050505"/><rect x="12" width="2" height="20" fill="#050505"/><rect x="16" width="2" height="20" fill="#050505"/></g><g transform="translate(164.63,219.5) scale(2.744) rotate(0)"><rect width="20" height="2" fill="#002f69"/><rect y="4" width="20" height="2" fill="#002f69"/><rect y="8" width="20" height="2" fill="#002f69"/><rect y="12" width="20" height="2" fill="#002f69"/><rect y="16" width="20" height="2" fill="#002f69"/></g><g transform="translate(219.5,219.5) scale(2.744) rotate(0)"><rect width="20" height="2" fill="#000c1a"/><rect y="4" width="20" height="2" fill="#000c1a"/><rect y="8" width="20" height="2" fill="#000c1a"/><rect y="12" width="20" height="2" fill="#000c1a"/><rect y="16" width="20" height="2" fill="#000c1a"/></g><g transform="translate(329.25,219.5) scale(2.744) rotate(0)"><rect width="20" height="2" fill="#001125"/><rect y="4" width="20" height="2" fill="#001125"/><rect y="8" width="20" height="2" fill="#001125"/><rect y="12" width="20" height="2" fill="#001125"/><rect y="16" width="20" height="2" fill="#001125"/></g><g transform="translate(384.13,219.5) scale(2.744) rotate(0)"><rect width="2" height="20" fill="#1c1c1c"/><rect x="4" width="2" height="20" fill="#1c1c1c"/><rect x="8" width="2" height="20" fill="#1c1c1c"/><rect x="12" width="2" height="20" fill="#1c1c1c"/><rect x="16" width="2" height="20" fill="#1c1c1c"/></g><g transform="translate(493.88,219.5) scale(2.744) rotate(0)"><rect width="20" height="2" fill="#0a0a0a"/><rect y="4" width="20" height="2" fill="#0a0a0a"/><rect y="8" width="20" height="2" fill="#0a0a0a"/><rect y="12" width="20" height="2" fill="#0a0a0a"/><rect y="16" width="20" height="2" fill="#0a0a0a"/></g><g transform="translate(0,274.38) scale(2.744) rotate(0)"><rect width="20" height="2" fill="#002757"/><rect y="4" width="20" height="2" fill="#002757"/><rect y="8" width="20" height="2" fill="#002757"/><rect y="12" width="20" height="2" fill="#002757"/><rect y="16" width="20" height="2" fill="#002757"/></g><g transform="translate(219.5,274.38) scale(2.744) rotate(0)"><rect width="20" height="2" fill="#0d0d0d"/><rect y="4" width="20" height="2" fill="#0d0d0d"/><rect y="8" width="20" height="2" fill="#0d0d0d"/><rect y="12" width="20" height="2" fill="#0d0d0d"/><rect y="16" width="20" height="2" fill="#0d0d0d"/></g><g transform="translate(54.88,384.13) scale(2.744) rotate(0)"><rect width="2" height="20" fill="#313131"/><rect x="4" width="2" height="20" fill="#313131"/><rect x="8" width="2" height="20" fill="#313131"/><rect x="12" width="2" height="20" fill="#313131"/><rect x="16" width="2" height="20" fill="#313131"/></g><g transform="translate(493.88,384.13) scale(2.744) rotate(0)"><rect width="20" height="2" fill="#002450"/><rect y="4" width="20" height="2" fill="#002450"/><rect y="8" width="20" height="2" fill="#002450"/><rect y="12" width="20" height="2" fill="#002450"/><rect y="16" width="20" height="2" fill="#002450"/></g></g></svg>